<?xml version="1.0" encoding="utf-8"?>
<!-- Generator: Adobe Illustrator 22.1.0, SVG Export Plug-In . SVG Version: 6.00 Build 0)  -->
<svg version="1.1" id="Layer_1" xmlns="http://www.w3.org/2000/svg" xmlns:xlink="http://www.w3.org/1999/xlink" x="0px" y="0px"
	 width="473.5px" height="73.1px" viewBox="0 0 473.5 73.1" style="enable-background:new 0 0 473.5 73.1;" xml:space="preserve">
<style type="text/css">
	.st0{fill:#2E5C99;}
	.st1{fill:url(#SVGID_1_);}
	.st2{fill:#CE210F;}
</style>
<title>british-airways</title>
<g>
	<g>
		<g>
			<path class="st0" d="M0,72.5c1-0.5,1.5-1.8,1.5-2.9V43.2C1.5,42,1,40.8,0,40.3h12.6c5.6,0,11.1,2.3,11.1,8.7c0,3.4-3,6.1-6.1,6.7
				c4.6,0,9,2.8,9,7.8c0,7.2-7.6,9.1-12.9,9.1L0,72.5L0,72.5z M10.2,43c-0.6,0-1,0-2.1,0.1v11.3h1.3c3.9,0,7.6-1.2,7.6-5.7
				C17,44.3,14,43,10.2,43z M11,57.4c-0.9,0-1.7,0-2.9,0.1v11.9c1.4,0.3,2.9,0.4,4.3,0.4c3.2,0,6.5-1.4,6.5-6.4
				C19,58.5,15.1,57.4,11,57.4z M39.1,43c-0.6,0-1.1,0.1-1.7,0.2v11.2c0.5,0,1,0.1,1.5,0.1c3.6,0,6.3-2,6.3-5.9
				C45.3,44.5,42.6,43,39.1,43z M55.3,72.7c-1.2,0-2.6,0-3.8-0.3c-2.2-0.6-5.2-5.6-6.4-7.5c-1.9-3.2-3.5-7.5-7.7-7.5v12.3
				c0,1.1,0.5,2.4,1.5,2.9h-9.7c1-0.5,1.5-1.7,1.5-2.9V43.2c0-1.1-0.5-2.3-1.5-2.9h11.7c5.1,0,11.4,1.9,11.4,8
				c0,5.1-4.2,7.7-8.9,7.7c6.7,0,10.7,15.8,18.1,15.8C59.5,72.5,57.4,72.7,55.3,72.7z M62,72.5c0.8-0.4,1.6-1.4,1.6-2.9V43.2
				c0-1.5-0.8-2.5-1.6-2.9h9.9c-0.9,0.4-1.6,1.4-1.6,2.9v26.5c0,1.4,0.8,2.5,1.6,2.9H62z M83.5,72.5c1.1-0.5,1.6-1.7,1.6-2.9V44H78
				c-1.6,0-3.6,0.2-5,1l2.2-4.7h23.6c1.9,0,3.9,0,5.7-0.4c-0.9,2.4-3.6,4.2-5.1,4.2c-1.9,0-5-0.2-7.7-0.2v25.8
				c0,1.1,0.6,2.4,1.6,2.9L83.5,72.5L83.5,72.5z M105.7,72.5c0.8-0.4,1.6-1.4,1.6-2.9V43.2c0-1.5-0.8-2.5-1.6-2.9h9.9
				c-0.8,0.4-1.7,1.4-1.7,2.9v26.5c0,1.4,0.8,2.5,1.7,2.9H105.7z M134.9,65.2c0-6.1-14.5-7.5-14.5-17.3c0-6.1,5.8-8.1,10.8-8.1
				c2.3,0,5.5,0.3,7.6,1.3l0.4,6c-1.3-2.7-4.5-4.6-7.4-4.6c-2.3,0-4.8,1.2-4.8,3.8c0,6.4,14.7,7.9,14.7,17.2c0,6.7-5.9,9.5-11.8,9.5
				c-3.1,0-7.3-0.6-10-2.4c-0.2-1.1-0.2-2.2-0.2-3.3c0-1.3,0.1-2.6,0.3-3.9c1.6,3.7,5,6.6,9.3,6.6C132.6,70.1,134.9,68.7,134.9,65.2
				z M165.9,72.5c0.7-0.3,1.4-1.4,1.4-2.9v-12c-1.7-0.2-4.1-0.3-6.8-0.3c-2.7,0-5.2,0.1-6.9,0.3v12c0,1.4,0.7,2.5,1.4,2.9h-9.6
				c0.7-0.3,1.5-1.4,1.5-2.9V43.2c0-1.5-0.8-2.6-1.5-2.9h9.6c-0.7,0.4-1.4,1.4-1.4,2.9V54c1.8,0.2,4.2,0.3,6.9,0.3
				c2.7,0,5.1-0.1,6.8-0.3V43.2c0-1.5-0.7-2.6-1.4-2.9h9.5c-0.7,0.4-1.4,1.4-1.4,2.9v26.5c0,1.4,0.7,2.5,1.4,2.9H165.9z"/>
			<path class="st0" d="M210.9,72.5c0.3-0.3,0.6-0.6,0.6-1.1c0-0.2-0.1-0.5-0.3-1.1c0,0-2.6-7.2-3-8c-2-0.2-4.1-0.2-6.1-0.2
				c-1.9,0-3.9,0-5.8,0.2c-0.3,0.7-3.1,7.9-3.1,7.9c-0.4,1-0.5,1.3-0.5,1.5c0,0.5,0.4,0.7,0.8,0.9H187c1-0.5,1.8-1.5,2.2-2.5
				l10.7-27.5c0-0.1,0.1-0.2,0.1-0.4c0-0.8-0.5-1.5-1.2-1.8h8.4L217.9,70c0.4,1.2,1.4,2.1,2.2,2.5L210.9,72.5L210.9,72.5z
				 M202.5,46.4l-4.9,12.6c1.5,0.2,3,0.2,4.4,0.2c1.7,0,3.4,0,5-0.2L202.5,46.4z M221.8,72.5c0.8-0.4,1.6-1.4,1.6-2.9V43.2
				c0-1.5-0.8-2.5-1.6-2.9h9.9c-0.8,0.4-1.6,1.4-1.6,2.9v26.5c0,1.4,0.8,2.5,1.6,2.9H221.8z M246.8,43c-0.5,0-1,0.1-1.6,0.2v11.2
				c0.5,0,1,0.1,1.5,0.1c3.6,0,6.3-2,6.3-5.9C253,44.5,250.3,43,246.8,43z M263.8,72.7c-1.2,0-2.6,0-3.8-0.3
				c-2.2-0.6-5.2-5.6-6.4-7.5c-1.9-3.2-4.3-7.5-8.5-7.5v12.3c0,1.1,0.5,2.4,1.5,2.9H237c1-0.5,1.5-1.7,1.5-2.9V43.2
				c0-1.1-0.5-2.3-1.5-2.9h11.7c5.1,0,11.4,1.9,11.4,8c0,5.1-4.6,7.7-8.1,7.7c7,0.4,11.2,15.8,18.1,15.8
				C268,72.5,265.9,72.7,263.8,72.7z M304.1,43.4l-9.8,29.1c-0.8,0-1.6-0.3-2-0.6c-1-0.9-2.5-4.8-3-6.3l-4.4-11.2l-6.4,18.1h-3
				l-11-29.2c-0.5-1.2-1.3-2.4-2.5-3.1h9.5c-0.4,0.3-0.7,0.7-0.7,1.3c0,0.3,0.2,0.8,0.3,1.1l7.1,19.3l7.6-21.8l8.4,21l6.3-19
				c0.2-0.5,0.2-0.7,0.2-1c0-0.4-0.2-0.6-0.6-1h6.3C305.3,40.9,304.5,42.2,304.1,43.4z M315.8,46.4l-4.9,12.6c1.5,0.2,3,0.2,4.5,0.2
				c1.7,0,3.4,0,5-0.2L315.8,46.4z M324.2,72.5c0.3-0.3,0.6-0.6,0.6-1.1c0-0.2-0.1-0.5-0.3-1.1c0,0-2.6-7.2-3-8
				c-2-0.2-4.1-0.2-6.1-0.2c-1.9,0-3.9,0-5.8,0.2c-0.3,0.7-3.1,7.9-3.1,7.9c-0.4,1-0.5,1.3-0.5,1.5c0,0.5,0.4,0.7,0.7,0.9h-6.5
				c1-0.5,1.8-1.5,2.2-2.5l10.7-27.5c0-0.1,0.1-0.2,0.1-0.4c0-0.8-0.5-1.5-1.2-1.8h8.4L331.3,70c0.4,1.2,1.4,2.1,2.2,2.5L324.2,72.5
				L324.2,72.5z M353.3,43.6L345.7,57v12.6c0,1,0.4,2.4,1.4,2.9h-9.5c1-0.5,1.4-1.9,1.4-2.9V57l-6.6-10.6c-0.6-1-3.4-5.6-6.7-5.6
				c0.9-0.3,3.7-0.9,5.6-0.9c3.1,0,4.7,0.3,6.6,3.3l6.1,9.7c0.5-1,5.4-9.4,5.4-9.4c0.6-1,1-1.8,1-2.1c0-0.5-0.2-0.8-0.7-1.1h6.8
				C355.2,40.9,354.1,42.4,353.3,43.6z M371.2,65.2c0-6.1-14.5-7.5-14.5-17.3c0-6.1,5.8-8.1,10.8-8.1c2.3,0,5.5,0.3,7.6,1.3l0.4,6
				c-1.3-2.7-4.5-4.6-7.4-4.6c-2.3,0-4.8,1.2-4.8,3.8c0,6.4,14.7,7.9,14.7,17.2c0,6.7-5.8,9.5-11.8,9.5c-3.1,0-7.3-0.6-10-2.4
				c-0.2-1.1-0.3-2.2-0.3-3.3c0-1.3,0.1-2.6,0.3-3.9c1.6,3.7,5,6.6,9.3,6.6C368.8,70.1,371.2,68.7,371.2,65.2z"/>
		</g>
	</g>
	
		<linearGradient id="SVGID_1_" gradientUnits="userSpaceOnUse" x1="453.3325" y1="34.0231" x2="429.1347" y2="-7.8884" gradientTransform="matrix(1 0 0 -1 0 45.1599)">
		<stop  offset="0" style="stop-color:#E6EBEF"/>
		<stop  offset="7.640000e-02" style="stop-color:#BBCEE5"/>
		<stop  offset="0.1854" style="stop-color:#85A9D8"/>
		<stop  offset="0.2796" style="stop-color:#5D8FCF"/>
		<stop  offset="0.3543" style="stop-color:#457EC9"/>
		<stop  offset="0.4" style="stop-color:#3C78C7"/>
		<stop  offset="0.9" style="stop-color:#2E5C99"/>
	</linearGradient>
	<path class="st1" d="M460.2,17.7c-5.4,5.4-17.2,10-22.9,12.2c-7.9,3-11.4,4-15.8,5.5c-5,1.6-15,4.6-15,4.6
		c20.7,6.2,35.3,8.1,35.3,8.1s6.8-2.1,17.6-7.9c5.8-3,8.7-5,10.8-6.9c0.8-0.7,2.7-2.7,3.2-5.3c0-0.2,0.1-0.7,0.1-1.2
		c0,0,0-0.3,0-0.6c0-0.3-0.1-0.6-0.1-0.6s-0.1-0.6-0.3-1.1c-0.2-0.4-0.8-1.8-1.9-2.6c-0.7-0.6-2-2-6.5-3.6c-1.5-0.5-4-1-4-1
		L460.2,17.7z"/>
	<path class="st2" d="M473.5,26.6c0,0,0-0.6-0.2-1.1c-0.1-0.4-0.3-0.9-0.6-1.3c-0.4-0.5-0.8-1.1-1.5-1.8c-0.5-0.5-1.1-0.9-1.8-1.4
		c-2.8-1.9-6.5-2.9-9.7-3.3c-5-0.7-10.7-0.5-11.3-0.6c-1.8,0-13.8,0.1-16.8,0.1c-13.6,0.3-30.3,0.3-34.6,0.3
		c-45.1,0.2-64.7-0.8-86.5-5.1c-18.6-3.7-28.9-7.2-28.9-7.2c16.4-0.6,112-4.5,129.4-5c11.4-0.3,19.5-0.4,26,0
		c3.3,0.2,6.4,0.5,10.3,1.1c3.5,0.6,6.7,1.6,8.5,2.3c3.9,1.4,7.2,3.5,8.8,5.6c0,0,0.5,0.5,1.1,1.4c0.7,1,1.6,2.3,1.9,2.7
		c2.4,3.6,3.5,5.8,3.9,6.6c0.4,0.8,0.8,1.7,1.2,2.5c0.4,0.8,0.5,1.3,0.6,1.7c0.2,0.9,0.3,1.7,0.3,1.9L473.5,26.6z"/>
</g>
</svg>
