<?xml version="1.0" encoding="utf-8"?>
<!-- Generator: Adobe Illustrator 22.1.0, SVG Export Plug-In . SVG Version: 6.00 Build 0)  -->
<svg version="1.1" id="Layer_1" xmlns="http://www.w3.org/2000/svg" xmlns:xlink="http://www.w3.org/1999/xlink" x="0px" y="0px"
	 width="187.1px" height="23.4px" viewBox="0 0 187.1 23.4" style="enable-background:new 0 0 187.1 23.4;" xml:space="preserve">
<style type="text/css">
	.st0{fill-rule:evenodd;clip-rule:evenodd;}
</style>
<g>
	<path class="st0" d="M34.2,4.6v18.3h2.6V4.6h6.3V3.4H27.9v1.2H34.2L34.2,4.6z M57.2,1.1V0H45.7v1.1H57.2L57.2,1.1z M45.8,22.9h11.6
		v-1.2h-9v-8.8h8.2v-1.2h-8.2V4.6h8.8V3.4H45.8V22.9L45.8,22.9z M61,22.9h11.6v-1.2h-9v-8.8h8.2v-1.2h-8.2V4.6h8.9V3.4H61V22.9
		L61,22.9z M0,22.9h11.6v-1.2h-9v-8.8h8.2v-1.2H2.6V4.6h8.9V3.4H0V22.9L0,22.9z M156.6,22.9h11.6v-1.2h-9v-8.8h8.2v-1.2h-8.2V4.5
		h8.8V3.4h-11.4V22.9L156.6,22.9z M84.1,22.9h11.5v-1.3h-8.9V3.4h-2.5V22.9L84.1,22.9z M14,22.1c1.7,0.9,3.7,1.4,5.7,1.4
		c4.1,0,7.7-2.3,7.7-6.3c0-6.7-11.1-4.4-11.1-9.6c0-1.9,1.8-3.6,4.5-3.6c2.7,0,4.5,1.4,5.3,2V4.2c-1-0.5-3-1.3-5.4-1.3
		c-3.4,0-6.6,2-6.6,5.3c0,7,11,4.5,11,9.7c0,2.1-2,4.3-5.4,4.3c-2.6,0-4.7-1.4-5.7-1.9V22.1L14,22.1z M96.6,22.9l8.3-19.7h2l3.2,7.6
		l5.2,12.1h-2.9l-3.1-7.5h-7.9l-3,7.5H96.6L96.6,22.9z M108.8,14.3c-0.9-2.1-2.2-5.4-3.5-8.6c-1.3,3.4-3.1,7.7-3.5,8.6H108.8
		L108.8,14.3z M116.6,16.4c0,4.4,2.6,6.9,7.8,6.9c5.6,0,7.8-3.2,7.8-6.8V3.4h-1.5v13.2c0,3.6-2.4,5.7-6,5.7c-3.2,0-5.6-1.6-5.6-5.3
		V3.4h-2.5V16.4L116.6,16.4z M171.9,3.4h7.1c3.7-0.1,6.8,1.4,6.8,5c0,3.6-4.1,4.7-5,4.9l6.4,9.6h-2.9l-6-9.3h-3.8v9.3h-2.6V3.4
		L171.9,3.4z M177.5,12.5c3.2,0.1,5.7-1.2,5.7-4.1c0-2.6-1.6-4-4.4-3.9h-4.3v8H177.5L177.5,12.5z M136.1,22.9V3.4h7.5
		c6.2-0.1,9.8,3.4,9.8,9.5c0,7.3-5,10.1-10.8,10H136.1L136.1,22.9z M138.7,21.8h3.4c5.3,0.1,8.7-2.2,8.7-8.5c0-5.8-2.8-8.8-7.5-8.7
		h-4.5V21.8L138.7,21.8z"/>
</g>
</svg>
