<svg xmlns="http://www.w3.org/2000/svg" viewBox="0 0 120 50" enable-background="new 0 0 120 50"><path fill="#EAE6DE" d="M0 0h119.8v49.9h-119.8z"/><path d="M11 18.6v12.7h3.4v-5.5h7.3v5.5h3.4v-12.7h-3.4v4.6h-7.3v-4.6zm52.1 0v2.7h4.9v10h3.4v-10h4.9v-2.7zm28 0v2.7h-9v1.9h7.6v2.6h-7.6v2.8h9v2.7h-12.4v-12.7zm-89-16.5h115.6v45.7h-115.6v-45.7zm-2.1 47.8h119.8v-49.9h-119.8v49.9zm114.8-5h-109.8v-39.9h109.8v39.9zm-110.5.7h111.2v-41.3h-111.2v41.3zm99.4-21.7h-6.1v-2.8h6.1c1.7 0 1.7 2.8 0 2.8m1.5 2.5c2.1-.3 3.1-1.9 3.1-4s-1.8-3.7-3.9-3.7h-10.2v12.7h3.4v-4.8h3.5l3.8 4.8h4.3l-4-5zm-58.5-7.8h3.6l7 8.7v-8.7h3.5v12.7h-4l-6.7-8.3v8.3h-3.4zm-10.8 10c2.2 0 3.6-.8 3.6-2.6v-7.4h3.4v8c0 3.3-3.3 5-7.2 5-3.8 0-7-1.7-7-5v-8h3.4v7.4c.1 1.8 1.6 2.6 3.8 2.6" fill="#010202"/><text transform="translate(297.64 420.945)" font-family="'MyriadPro-Regular'" font-size="12">EAE6DE</text></svg>