<?xml version="1.0" encoding="utf-8"?>
<!-- Generator: Adobe Illustrator 22.1.0, SVG Export Plug-In . SVG Version: 6.00 Build 0)  -->
<svg version="1.1" id="Layer_1" xmlns="http://www.w3.org/2000/svg" xmlns:xlink="http://www.w3.org/1999/xlink" x="0px" y="0px"
	 width="185.1px" height="43.2px" viewBox="0 0 185.1 43.2" style="enable-background:new 0 0 185.1 43.2;" xml:space="preserve">
<style type="text/css">
	.st0{fill:#0A73BB;}
	.st1{fill:#1F3D73;}
	.st2{fill:#FEC057;}
	.st3{fill:#FFFFFF;}
	.st4{fill:none;stroke:#FEC057;stroke-width:0.417;}
</style>
<rect class="st0" width="175.5" height="43.2"/>
<rect x="0" y="0" class="st1" width="43.2" height="43.2"/>
<rect x="43.2" y="29.9" class="st2" width="132.3" height="13.3"/>
<path class="st3" d="M21.7,6.1c1.5,1.5,3.3,3.1,4.8,4.6L24.7,13v0.1l4.6,2.1l3.1-2.2L30.6,11v-0.2c1.9-1.4,3.6-2.7,5.5-4l-0.9,9.4
	H8.1L7.2,6.8c1.9,1.3,3.6,2.6,5.5,4V11l-1.9,2.1l3.1,2.2l4.6-2.1V13l-1.8-2.3c1.5-1.5,3.2-3.1,4.8-4.6H21.7"/>
<path class="st3" d="M35,18l-0.3,3.1l-10,0l0,10.9l4.9,0c1.1,0,2.2-1.1,2-1.9c-0.3-1.1-1.2-1.8-2.2-2.4c0.2,0,3.5-2.5,5.1-3.5
	c-0.1,0.7-1.2,9.6-1.2,9.7l-11.6,4.4h-0.2L9.9,33.8c0-0.1-1.1-9-1.2-9.7c1.6,1.1,4.9,3.5,5.1,3.5C12.9,28.2,12,29,11.7,30
	c-0.2,0.8,0.9,1.9,2,1.9l4.9,0l0-10.9l-10,0L8.3,18H35"/>
<path class="st3" d="M51.9,15c1.9,0,4.2-0.9,4.2-3.2c0-2.4-2.1-3.3-4.2-3.3V15 M50.1,12.3c0-3.1-0.1-3.6-2.4-3.8V8.3l4.9-0.2
	c5.1-0.2,5.5,2.3,5.5,3.3c0,1.7-1.1,2.7-2.5,3.3l0.1,0.1c1.6,2.7,3.5,6.2,6.8,6.9l-0.1,0.3c-2.1-0.1-3.7,0-4.9-1.3
	c-1.3-1.4-2.4-3.2-2.8-4c-0.8-1.7-1.5-1.2-3-1.4v3.3c0,2.2,0,2.6,2.8,3v0.3h-7.1v-0.3c2.4-0.3,2.4-0.9,2.5-3V12.3z"/>
<path class="st3" d="M65.5,13.2c-2.2,0-3.1,2.3-3.1,4.1c0,1.9,1.1,4.3,3.2,4.3c2,0,3-2.3,3-4.1C68.6,15.7,67.7,13.2,65.5,13.2
	 M65.5,22.1c-2.8,0-5-1.8-5-4.6c0-2.8,2.3-4.7,5-4.7c2.7,0,5,1.8,5,4.6C70.5,20.1,68.2,22.1,65.5,22.1z"/>
<path class="st3" d="M71.1,14.8c-0.4-0.9-0.4-1.1-1.5-1.3v-0.3h4.2v0.3c-1.5,0.1-1.1,1-0.7,2l2,5.1l1.3-3.6c0.9-2.6,1.1-3.3-0.4-3.5
	v-0.3h3.5v0.3c-0.9,0.1-1.2,0.5-1.6,1.2l-0.8,2L74,24.5c-0.7,1.9-1.3,2.5-2.1,2.5c-0.5,0-1-0.4-1-1c0-0.4,0.2-0.8,0.6-1
	c0.2,0.1,0.8,0.6,1.1,0.6c0.4,0,0.8-1.1,1-1.4l0.7-1.6L71.1,14.8"/>
<path class="st3" d="M80.8,18.7c-0.1,0.3-0.1,0.5-0.1,0.8c0,0.8,0.5,1.6,1.4,1.6c0.5,0,1.1-0.4,1.5-0.7v-3.1L80.8,18.7 M83.6,16.9
	c0.2-2.2-0.4-3.1-2-3.1c-1.4,0-1.3,0.7-1.3,1.8l-1,0.1c-0.2,0-0.5,0-0.5-0.2c0-0.5,2.2-2.6,3.9-2.6c1.9,0,2.4,1.4,2.4,3v2.9
	c0,1.8-0.2,2.9,1.8,2.6v0.5c-0.8,0.2-1.4,0.3-2,0.3c-0.8,0-1.2-0.5-1.3-1.3c-0.6,0.7-1.5,1.4-2.6,1.4c-1.3,0-2-1.1-2-2.3
	c0-0.3,0-0.6,0.1-0.9L83.6,16.9z"/>
<path class="st3" d="M86,21.9v-0.5c1.4-0.2,1.6-0.5,1.6-1.9V11c0-0.8,0-1.1-1-1.8V8.9L88.9,8l0.2,0.1v11.4c0,1.7,0.1,1.8,1.6,2v0.3
	H86"/>
<path class="st3" d="M107,18.7c-0.1,0.3-0.1,0.5-0.1,0.8c0,0.8,0.5,1.6,1.4,1.6c0.5,0,1.1-0.4,1.5-0.7v-3.1L107,18.7 M109.8,16.9
	c0.2-2.2-0.4-3.1-2-3.1c-1.4,0-1.3,0.7-1.3,1.8l-1,0.1c-0.2,0-0.5,0-0.5-0.2c0-0.5,2.2-2.6,3.9-2.6c1.9,0,2.4,1.4,2.4,3v2.9
	c0,1.8-0.2,3,1.8,2.6v0.5c-0.8,0.2-1.4,0.3-2,0.3c-0.8,0-1.2-0.5-1.3-1.3c-0.6,0.7-1.5,1.4-2.6,1.4c-1.3,0-2-1.1-2-2.3
	c0-0.3,0-0.6,0.1-0.9L109.8,16.9z"/>
<path class="st3" d="M103.9,12.3h-0.3c-0.4-2.3-1.7-3.9-4.1-3.9c-3.7,0-5.8,3-5.8,6.5c0,4,3.1,6.8,6,6.8c2.6,0,3.7-1.9,4.6-4.1
	l0.3,0.1c-0.2,1.2-0.6,2.4-1.1,3.6c-1.3,0.6-2.7,0.9-4.1,0.9c-4.2,0-8-2.4-8-7c0-3.6,2.8-7.2,8.1-7.2c1.5,0,3.1,0.3,4.4,1.1V12.3"/>
<path class="st3" d="M155.1,18.7c-0.1,0.3-0.1,0.5-0.1,0.8c0,0.8,0.5,1.6,1.4,1.6c0.5,0,1.1-0.4,1.5-0.7v-3.1L155.1,18.7
	 M157.8,16.9c0.2-2.2-0.4-3.1-2-3.1c-1.4,0-1.3,0.7-1.3,1.8l-1,0.1c-0.2,0-0.5,0-0.5-0.2c0-0.5,2.2-2.6,3.9-2.6c1.9,0,2.4,1.4,2.4,3
	v2.9c0,1.8-0.3,2.9,1.6,2.8v0.4c-0.8,0.2-1.2,0.2-1.8,0.2c-0.8,0-1.2-0.5-1.3-1.3c-0.6,0.7-1.5,1.4-2.6,1.4c-1.3,0-2-1.1-2-2.3
	c0-0.3,0-0.6,0.1-0.9L157.8,16.9z"/>
<path class="st3" d="M115.3,19.5c0,1.7,0.1,1.8,2,2v0.3h-5.1v-0.5c1.4-0.1,1.5-0.4,1.5-2v-3.7c0-0.8,0-1.1-1-1.8v-0.2l2.4-0.9
	l0.2,0.1l-0.1,2.4h0c0.4-1.1,1.6-2.5,2.9-2.5c0.6,0,1,0.4,1,0.9c0,0.5-0.6,1.1-1.1,1.3c-0.3-0.3-0.8-0.7-1.3-0.7
	c-1.7,0.2-1.6,2.9-1.6,3.2V19.5"/>
<path class="st3" d="M123.1,9.4c0,0.6-0.5,1-1,1c-0.6,0-1-0.5-1-1c0-0.6,0.5-1,1-1C122.7,8.4,123.1,8.8,123.1,9.4 M119.8,21.9v-0.3
	c1.5-0.2,1.6-0.5,1.6-2v-3.9c0-0.8,0-1.1-1.2-1.8v-0.2l2.6-0.9l0.2,0.1v6.7c0,1.7,0.1,1.8,1.6,2v0.3H119.8z"/>
<path class="st3" d="M126.8,17.8c0,1.9,0.2,3.7,2.5,3.7c1.1,0,2.9-0.9,2.9-3.7c0-2.4-1.6-4-3.6-4c-0.7,0-1.3,0.2-1.9,0.4V17.8
	 M125.3,11c0-0.8,0-1.1-1-1.8V8.9l2.3-0.9l0.2,0.1v5.8c1-0.5,2.2-1.1,3.4-1.1c2.2,0,3.8,2.1,3.8,4.2c0,3.6-3.3,5.1-5.5,5.1
	c-1.2,0-2.1-0.3-3.2-0.8V11z"/>
<path class="st3" d="M136.5,17.8c0,1.9,0.2,3.7,2.5,3.7c1.1,0,2.9-0.9,2.9-3.7c0-2.4-1.6-4-3.6-4c-0.7,0-1.3,0.2-1.9,0.4V17.8
	 M134.9,11c0-0.8,0-1.1-1-1.8V8.9l2.3-0.9l0.2,0.1v5.8c1-0.5,2.2-1.1,3.4-1.1c2.2,0,3.8,2.1,3.8,4.2c0,3.6-3.3,5.1-5.5,5.1
	c-1.2,0-2.1-0.3-3.2-0.8V11z"/>
<path class="st3" d="M150.3,15.2c-0.2-0.9-0.7-2-1.8-2c-1.2,0-1.8,1.1-2.1,2.1L150.3,15.2 M146.3,16.7c-0.2,2.1,1.3,4.1,3.6,4.1
	c1.1,0,1.8-0.5,2.4-1.3l0.3,0.2c-0.8,1.3-2.1,2.3-3.7,2.3c-2.5,0-4.2-2.1-4.2-4.5c0-2.6,1.8-4.9,4.5-4.9c1.8,0,3,1.2,3.1,3h-5.9
	L146.3,16.7z"/>
<path class="st3" d="M161.8,15.7c0-0.8,0-1.1-1-1.8v-0.2l2.4-0.9l0.2,0.1l-0.2,1.5c1.2-0.8,2.3-1.6,3.6-1.6c2.4,0,2.5,2,2.5,3.2v3.6
	c0,1.7,0.1,1.8,1.6,2v0.3h-4.7v-0.3c1.5-0.2,1.6-0.5,1.6-2v-2.3c0-1.4,0.1-3.4-2.4-3.4c-0.8,0-1.4,0.3-2.1,0.9v4.9
	c0,1.7,0.1,1.8,1.6,2v0.3h-4.7l0-0.4c1.5-0.1,1.6-0.4,1.6-2V15.7"/>
<rect x="49.8" y="33.8" class="st1" width="0.9" height="6.1"/>
<polyline class="st1" points="56.9,33.8 58.1,33.8 60.8,38.6 60.8,38.6 60.8,33.8 61.6,33.8 61.6,39.8 60.5,39.8 57.8,34.8 
	57.8,34.8 57.8,39.8 56.9,39.8 56.9,33.8 "/>
<polyline class="st1" points="69.1,34.5 67.2,34.5 67.2,33.8 71.8,33.8 71.8,34.5 69.9,34.5 69.9,39.8 69.1,39.8 69.1,34.5 "/>
<polyline class="st1" points="77.4,33.8 80.8,33.8 80.8,34.5 78.3,34.5 78.3,36.3 80.6,36.3 80.6,37.1 78.3,37.1 78.3,39.1 
	80.8,39.1 80.8,39.8 77.4,39.8 77.4,33.8 "/>
<path class="st1" d="M87.7,36.4h0.7c0.8,0,1.3-0.4,1.3-0.9c0-0.5-0.4-0.9-1.2-0.9h-0.8V36.4 M86.8,33.8h1.5c1.2,0,2.3,0.2,2.3,1.6
	c0,0.7-0.5,1.3-1.2,1.4v0c0.3,0.1,0.4,0.2,0.6,0.6l1.1,2.4h-1l-0.9-2.1c-0.3-0.6-0.6-0.6-1-0.6h-0.5v2.7h-0.9V33.8z"/>
<polyline class="st1" points="96.8,33.8 98,33.8 100.7,38.6 100.7,38.6 100.7,33.8 101.6,33.8 101.6,39.8 100.5,39.8 97.7,34.8 
	97.7,34.8 97.7,39.8 96.8,39.8 96.8,33.8 "/>
<path class="st1" d="M110.1,34.6l-1.2,3h2.4L110.1,34.6 M109.7,33.8h0.9l2.6,6.1h-0.9l-0.6-1.5h-3l-0.6,1.5h-0.9L109.7,33.8z"/>
<polyline class="st1" points="119.3,34.5 117.4,34.5 117.4,33.8 122,33.8 122,34.5 120.2,34.5 120.2,39.8 119.3,39.8 119.3,34.5 "/>
<rect x="127.6" y="33.8" class="st1" width="0.9" height="6.1"/>
<path class="st1" d="M137.3,39.2c1.4,0,2-1.2,2-2.4c0-1.2-0.7-2.4-2-2.4c-1.3,0-2,1.1-2,2.4C135.3,38,135.9,39.2,137.3,39.2
	 M137.3,33.7c1.8,0,2.9,1.3,2.9,3.1c0,1.8-1.1,3.1-2.9,3.1c-1.8,0-2.9-1.3-2.9-3.1C134.4,35,135.4,33.7,137.3,33.7z"/>
<polyline class="st1" points="146.1,33.8 147.3,33.8 150,38.6 150,38.6 150,33.8 150.8,33.8 150.8,39.8 149.7,39.8 147,34.8 
	147,34.8 147,39.8 146.1,39.8 146.1,33.8 "/>
<path class="st1" d="M159.4,34.6l-1.2,3h2.4L159.4,34.6 M159,33.8h0.9l2.6,6.1h-0.9l-0.6-1.5h-3l-0.6,1.5h-0.9L159,33.8z"/>
<polyline class="st1" points="168,33.8 168.9,33.8 168.9,39.1 171.4,39.1 171.4,39.8 168,39.8 168,33.8 "/>
<path class="st1" d="M182,0.4c1.5,0,2.7,1.2,2.7,2.7c0,1.5-1.2,2.7-2.7,2.7c-1.5,0-2.7-1.2-2.7-2.7C179.4,1.6,180.6,0.4,182,0.4V0
	c-1.7,0-3,1.4-3,3c0,1.7,1.4,3,3,3c1.7,0,3-1.4,3-3c0-1.7-1.3-3-3-3V0.4"/>
<path class="st1" d="M181.3,1.7h1c0.4,0,0.9,0.1,0.9,0.6c0,0.7-0.7,0.6-1.2,0.6h-0.6v0.3h0.8l1,1.6h0.5l-1-1.6
	c0.6,0,1.1-0.3,1.1-0.9c0-0.3-0.1-0.6-0.4-0.7c-0.3-0.1-0.5-0.2-0.8-0.2h-1.5v3.4h0.4V1.7"/>
<line class="st4" x1="43.2" y1="30" x2="175.5" y2="30"/>
</svg>
