<?xml version="1.0" encoding="utf-8"?>
<!-- Generator: Adobe Illustrator 22.1.0, SVG Export Plug-In . SVG Version: 6.00 Build 0)  -->
<svg version="1.1" id="layer" xmlns="http://www.w3.org/2000/svg" xmlns:xlink="http://www.w3.org/1999/xlink" x="0px" y="0px"
	 width="600px" height="180.1px" viewBox="0 0 600 180.1" style="enable-background:new 0 0 600 180.1;" xml:space="preserve">
<style type="text/css">
	.st0{fill:#00B8F4;}
</style>
<g>
	<path class="st0" d="M105,10.8c-5.7,8.4-23.6,24.1-33.4,30.1c-3.7,2.3-7.9-2.7-11-2.2c-4.8,0.8-6.8,6.3-5.5,9.3
		c10.2,25.1,24.7,46.5,33.3,71.8c2.6,7.5,2.5,11.2-3.4,18c-9.4,10.8-42.3,35.5-69.5,40.2c-6,1-19.2-15.3-14.5-19.2
		c16.1-13.1,47-28.3,52.6-26.6c1.6,0.5,3.6,4.7,4.8,4.5c3.4-0.4,6.1-1.5,3.8-6.5c0,0-27.4-45.5-33.7-71.5
		c-4.2-17.3,11.4-32.1,22.7-41C69.8,2.9,94.9-1.5,99,0.4c2.9,1.4,7,4.1,7.9,6.6C107.1,7.7,105.6,9.9,105,10.8 M326.8,128.9
		c0.3-3.3-0.8-7.3,0.7-19.8c-13.5,9.5-25.1,19.2-27,34.9c-0.1,1,1.8,4.3,3.9,3C313.5,141.3,323.5,132.8,326.8,128.9 M515,49.9
		c-10.9,10.3-21.8,36.1-20.5,49.9C504,88.7,516.2,64.3,515,49.9 M472.6,124.6c0-5.2,0.6-8.1,0.8-14.6c1.1-30.8,19.3-67.4,38.4-81.1
		c5.9-4.2,17.7-3.4,19.5,4.7c5.7,24.9-13,56-27.1,77c-4.7,7-6.9,10.4-10.4,15.4c-3,4.3-0.2,14.9,1.9,18.4c6.3,10.7,22-1.1,28.3-6.9
		c9.4-8.6,17.7-19.2,22.9-27.8c0.2-0.4-1.8-4.3-1.8-4.3c-0.4,0.3,11.2-14,14.3-18.4c6.4,3.3,14.7,13.4,16.8,18.6
		c4.2,10.5,3,21.2-2.5,32.3c-1.8,3.5-2.1,4.1-3.1,5.7c7.8-4.7,20.6-21.2,21.2-21.1c2.5,0.6,8.4,4.9,8.2,5.3
		c-14,21.2-31.9,40-55.5,42.9c-1,0.1-8-8.5-6.2-10c5.2-4.3,14.1-15.3,17.2-22.8c3-7.2,3-10,2.4-14.4c-0.5-3.7-2.4-1.3-2.4-1.3
		c-4.6,6.7-11.7,16.5-18.7,24c-15.5,16.7-24,19.7-27.5,20.9c-17.1,5.5-26.1-3-30.1-9.1c-5.3-7.9-3.3-17-6.5-14.6
		c-6.1,6.6-25,26.7-35.4,24.5c-17.1-3.6-6.6-25.1-18.4-22.8c-14.5,2.9-35,26.5-35,26.5s-10.3-6.1-13.7-7.8
		c-0.6-0.3,0.6-11.1,0.3-10.8c-16,12.8-22.4,12.4-27.2,9.4c-6.9-4.1-9.8-10.1-12.9-17.3c-8.5,11-27.4,24-33.9,26.8
		c-2.7,1.1-18.8-7-19.8-18.3c-8.6,2.6-14.6,3.3-20.8-11.5c-2.3-5.5-4.3-10.3-6.2-16.1c-8.7,13.3-29,38.4-41.6,45.5
		c-2.8,1.6-16.2-6.4-15.1-10c1.4-4.5,4.9-22,5.2-26.3c-1.5,2.1-3.4,4.3-5.1,6.2c-3.4,3.6-22.8,29-34.3,26.6
		c-17.1-3.6-6.6-25.4-18.3-23c-14.5,2.9-35.2,26.7-35.2,26.7c-1,0.8-10.1-6.1-13.5-7.8c-0.6-0.3,0.6-10.9,0.3-10.7
		c-17.1,10-10,12.1-17.7,4.4c-0.9-0.2,12.6-13.7,18.3-19c9.1-8.5,16.5-21.1,29.7-32.4c9.5-8.1,19.8-13.7,28.4-16.1
		c5.6-1.6,11.3,8.8,15.2,14.9c0.4,0.7-2.6,1-7.2,3.5c-17.9,9.6-26,16.3-40.3,33.7c15.9-12.7,20.5-5,25.7-18.3c5.9,0,13.7,0,18.9,0
		c0.3,0-1.6,7.4-1.2,10.9c0.5,4,2.5,8.8,6.6,9c4.9,0.3,10.6-4.3,18.5-12.4c4.5-5.2,11-14.5,16.9-26.5c2.8-5.7,5-11.1,6-12.7
		c1.6-2.4,14.6,4.9,17.3,7.3c0.2,0.2,0,0.6,0.1,0.9c-1,11.6-4.9,27.9-6.6,35.2c22.5-20.5,30.4-39.7,34.4-40.7
		c1.8-0.5,4.9,0.9,4.9,0.9c2.7,1.1,3.2,23.2,12.2,40.4c3,5.8,5,3.5,8.5-2.6c5.6-9.4,16.7-20.5,28.7-30c6.1-4.7,15.1-10.2,22.3-13.2
		c3.4-21,18.7-51.4,33.4-62.5c3.6-2.7,12.1,1.5,11.9,4.9c-1.3,23.7-9.6,46.7-21,68c-3.8,7-7.3,13.6-7.8,17.5
		c-1.4,10.1,0.1,19.7,6.3,23.4c6.9,4,15.5-1.5,20.3-6.8c7.7-8.1,14.7-19,26-28.7c9.5-8.1,19.8-13.7,28.4-16.1
		c5.6-1.6,11.3,8.8,15.2,14.9c0.4,0.7-2.6,1-7.2,3.5c-17.9,9.6-25.9,16.3-40.3,33.7c15.9-12.7,20.5-5,25.7-18.3c5.9,0,13.7,0,18.9,0
		c0.3,0-1.6,7.4-1.2,10.9c0.5,4,2.5,8.8,6.6,9C451.9,143.8,465.2,132.6,472.6,124.6"/>
	<path class="st0" d="M571.6,170.8c-1,1-1.4,2.1-1.4,3.5s0.5,2.5,1.4,3.5c1,1,2.1,1.5,3.5,1.5s2.5-0.5,3.5-1.5s1.4-2.1,1.4-3.5
		s-0.5-2.5-1.4-3.5c-1-1-2.1-1.5-3.5-1.5C573.7,169.3,572.5,169.8,571.6,170.8 M579.1,178.4c-1.1,1.1-2.5,1.7-4.1,1.7
		s-2.9-0.6-4.1-1.7c-1.1-1.1-1.7-2.5-1.7-4.1s0.6-2.9,1.7-4.1c1.1-1.1,2.5-1.7,4.1-1.7s2.9,0.6,4.1,1.7s1.7,2.5,1.7,4.1
		S580.3,177.2,579.1,178.4 M576.1,172.1c-0.3-0.2-0.7-0.2-1.3-0.2h-1v2.3h1c0.5,0,0.8-0.1,1.1-0.1c0.4-0.2,0.7-0.5,0.7-1
		C576.6,172.6,576.4,172.3,576.1,172.1 M574.9,171.1c0.8,0,1.4,0.1,1.7,0.2c0.7,0.3,1,0.8,1,1.6c0,0.6-0.2,1-0.6,1.2
		c-0.2,0.1-0.5,0.2-0.9,0.3c0.5,0.1,0.9,0.3,1.1,0.6c0.2,0.3,0.3,0.7,0.3,1v0.4c0,0.1,0,0.3,0,0.5s0,0.3,0.1,0.3v0.1h-1
		c0,0,0,0,0-0.1c0,0,0,0,0-0.1v-0.2v-0.5c0-0.7-0.2-1.2-0.6-1.4c-0.2-0.1-0.7-0.2-1.2-0.2h-1v2.5h-1.1V171h2.2V171.1z"/>
</g>
</svg>
