<?xml version="1.0" encoding="utf-8"?>
<!-- Generator: Adobe Illustrator 22.1.0, SVG Export Plug-In . SVG Version: 6.00 Build 0)  -->
<svg version="1.1" id="Layer_1" xmlns="http://www.w3.org/2000/svg" xmlns:xlink="http://www.w3.org/1999/xlink" x="0px" y="0px"
	 width="280px" height="65.2px" viewBox="0 0 280 65.2" style="enable-background:new 0 0 280 65.2;" xml:space="preserve">
<style type="text/css">
	.st0{fill:#ED193B;}
</style>
<title>partner</title>
<path d="M268,23.6c3.8-0.2,7,2.7,7.4,6.4h-14.9C261.4,25.8,264.3,23.6,268,23.6 M279.9,30.3c-0.4-6.2-5.6-11-11.9-10.8
	c-7.1,0-12.2,5.8-12.2,13c0,7.5,5.3,13,12.5,13c4.1,0,7.9-1.8,10.4-5c0.2-0.2,0.2-0.5,0-0.7c0,0,0,0,0,0l-2.1-2.3
	c-0.2-0.2-0.5-0.2-0.7-0.1c0,0-0.1,0.1-0.1,0.1c-2.5,2.7-4.4,3.9-7.5,3.9c-4.2,0-7.7-3.2-8.2-7.4h19.2c0.3,0,0.6-0.2,0.6-0.5
	c0,0,0,0,0,0C280,32.4,280,31.4,279.9,30.3 M243.8,44.4V33.4c0-5.6,3.2-9.6,7.6-9.6c0.8,0,1.7,0.1,2.5,0.3c0.3,0.1,0.7,0,0.8-0.4
	c0-0.1,0-0.2,0-0.3v-3.4c0-0.3-0.2-0.5-0.5-0.5c-0.6-0.1-1.2-0.1-1.8-0.1c-3.6-0.2-7,1.7-8.7,4.9v-3.8c0-0.3-0.2-0.5-0.5-0.5H240
	c-0.3,0-0.5,0.2-0.5,0.5v23.8c0,0.3,0.2,0.5,0.5,0.5h3.3C243.6,44.9,243.8,44.6,243.8,44.4 M223.4,23.6c5,0,8.3,3.9,8.3,8.9
	s-3.2,8.9-8.3,8.9c-5.1,0-8.3-3.9-8.3-8.9S218.3,23.6,223.4,23.6 M223.4,45.5c7.5,0,12.6-5.8,12.6-13s-5.1-13-12.6-13
	c-7.5,0-12.6,5.8-12.6,13S215.8,45.5,223.4,45.5 M198.2,32.4h-6.8v-8.2h6.8c3.9,0,5.5,1.1,5.5,4.1S202.1,32.4,198.2,32.4 M198.6,20
	h-11.1c-0.3,0-0.5,0.2-0.5,0.5v23.8c0,0.3,0.2,0.5,0.5,0.5h3.3c0.3,0,0.5-0.2,0.5-0.5v-7.8h7.3c5.1,0,9.3-2.5,9.3-8.2
	S203.7,20,198.6,20 M171,41.3c-2.3,0-4.4-1-4.4-3.4s1.8-3.6,5.7-3.6h6C178.3,38.6,175.2,41.4,171,41.3 M172.7,19.5
	c-3.4-0.1-6.7,1.4-8.9,4c-0.2,0.2-0.2,0.5,0,0.7l2.2,2.3c0.1,0.2,0.4,0.3,0.6,0.1c0.1,0,0.1-0.1,0.1-0.1c1.5-1.8,3.7-2.9,6-2.9
	c3.9,0,5.5,2.1,5.5,5.4v1.5h-6.6c-5.2,0-9.3,2.7-9.3,7.6s4.2,7.4,8.2,7.4c3.5,0,6.4-1.4,7.8-4.2v3.1c0,0.3,0.2,0.5,0.5,0.5h3.3
	c0.3,0,0.5-0.2,0.5-0.5V28.8C182.6,22.3,179.1,19.5,172.7,19.5 M159.2,30.9h-12c-0.3,0-0.5,0.2-0.5,0.5c0,0,0,0,0,0.1v3
	c0,0.3,0.2,0.5,0.5,0.5c0,0,0,0,0.1,0h8.1c-0.8,3.8-4.3,6.5-8.2,6.3c-4.9,0-8.1-3.9-8.1-8.9s3.2-8.9,8.1-8.9c2.5-0.1,5,0.9,6.6,2.8
	c0.1,0.2,0.4,0.3,0.6,0.1c0.1,0,0.1-0.1,0.1-0.1l2.1-2.4c0.2-0.2,0.2-0.5,0-0.7c0,0,0,0,0,0c-2.5-2.5-5.9-3.9-9.4-3.8
	c-7.6,0-12.5,5.8-12.5,13s4.9,13,12.4,13c7.4,0,12.6-5.5,12.6-13v-1C159.7,31.1,159.5,30.9,159.2,30.9
	C159.2,30.9,159.2,30.9,159.2,30.9 M122.3,19.5c-4.5,0-7,2.1-8.3,4.3v-3.2c0-0.3-0.2-0.5-0.5-0.5h-3.3c-0.3,0-0.5,0.2-0.5,0.5v23.8
	c0,0.3,0.2,0.5,0.5,0.5h3.3c0.3,0,0.5-0.2,0.5-0.5V31.8c0-4.6,2.6-8.2,7.1-8.2c4,0,5.7,2.6,5.7,6.9v13.9c0,0.3,0.2,0.5,0.5,0.5h3.3
	c0.3,0,0.5-0.2,0.5-0.5V30.1C131.2,23.2,128,19.5,122.3,19.5 M101,20.6v23.8c0,0.3,0.2,0.5,0.5,0.5h3.3c0.3,0,0.5-0.2,0.5-0.5V20.6
	c0-0.3-0.2-0.5-0.5-0.5h-3.3C101.2,20,101,20.3,101,20.6 M79.9,37.2l-2.3,2.5c-0.2,0.2-0.2,0.5,0,0.7c0,0,0,0,0,0
	c2.5,3.2,6.3,5.1,10.4,5c5.6,0,9.4-2.9,9.4-7.3c0-3.6-1.9-5.8-6-6.9L86.9,30c-3-0.9-4.2-1.9-4.2-3.4c0-1.9,2-3.2,5-3.2
	c2.2,0,4.3,1.1,5.7,2.8c0.2,0.2,0.4,0.2,0.6,0.1c0,0,0.1-0.1,0.1-0.1l2.2-2.3c0.2-0.2,0.2-0.5,0-0.7c0,0,0,0,0,0
	c-2.2-2.4-5.4-3.7-8.7-3.6c-5,0-9.2,2.7-9.2,7.2c0,3,2.1,5.7,6.3,6.9l4.3,1.2c3.1,0.9,3.9,2.1,3.9,3.5c0,2.1-2.1,3.1-4.8,3.1
	c-3.1,0.1-5.9-1.5-7.6-4c-0.1-0.2-0.4-0.3-0.6-0.1c-0.1,0-0.1,0.1-0.1,0.1 M144.3,58.4v6h-2.6V59c0.1-1-0.6-1.9-1.6-2
	c-0.1,0-0.1,0-0.2,0c-1-0.1-1.9,0.7-2,1.8c0,0,0,0,0,0.1v5.7h-2.7V55h2.7v1.2c0.7-0.9,1.7-1.4,2.9-1.4c1.9,0,3.5,1.5,3.5,3.4
	C144.3,58.3,144.3,58.3,144.3,58.4z M133.5,59.7c0.1,2.9-2.1,5.3-5,5.4c-2.9,0.1-5.3-2.1-5.4-5s2.1-5.3,5-5.4c0.1,0,0.1,0,0.2,0
	C131.1,54.7,133.4,56.9,133.5,59.7z M130.9,59.7c0-1.4-1.2-2.6-2.6-2.6c-1.4,0-2.6,1.2-2.6,2.6c0,0,0,0,0,0c0,1.4,1.2,2.6,2.6,2.6
	C129.7,62.3,130.9,61.1,130.9,59.7C130.9,59.7,130.9,59.7,130.9,59.7z M158.5,59l-3.9-7.1h-2.7v12.6h2.7v-7.9l3.9,7.1l3.9-7.1v7.9
	h2.7V51.9h-2.7L158.5,59z M199.5,60.7h-6.8c0.3,1,1.2,1.8,2.3,1.7c0.8,0,1.6-0.3,2.2-0.8l1.7,1.8c-1.1,1-2.5,1.5-3.9,1.5
	c-2.7,0.1-4.9-2.1-5-4.8c0-0.1,0-0.1,0-0.2c-0.1-2.6,2-4.9,4.6-4.9c0.1,0,0.2,0,0.3,0C197.8,54.8,199.6,57.1,199.5,60.7L199.5,60.7z
	 M197,58.8c-0.2-0.9-1.1-1.6-2-1.5c-1,0-1.9,0.6-2.2,1.5H197z M176.1,58.8v5.7h-2.6v-1c-0.7,0.8-1.7,1.2-2.8,1.2c-2,0-3.6-1.2-3.6-3
	c0-1.8,1.8-3.2,4-3.2c0.8,0,1.7,0.2,2.4,0.5v-0.2c0-1-0.6-1.9-2.2-1.9c-0.9,0-1.7,0.3-2.5,0.7l-0.9-1.8c1.2-0.6,2.6-1,4-1
	c2.1-0.1,3.9,1.5,4.1,3.6C176.1,58.6,176.1,58.7,176.1,58.8L176.1,58.8z M173.5,60.6c-0.6-0.2-1.3-0.3-2-0.4
	c-0.8-0.1-1.6,0.5-1.8,1.3c0,0.8,0.7,1.3,1.6,1.3c1,0.1,1.9-0.5,2.2-1.4L173.5,60.6z M185.5,51.6h2.7v12.9h-2.7v-1.3
	c-0.8,1-1.9,1.6-3.2,1.6c-2.5,0-4.4-2.1-4.4-5s1.9-5,4.4-5c1.3,0,2.4,0.6,3.2,1.6L185.5,51.6z M185.5,59.7c0.1-1.4-0.9-2.6-2.3-2.7
	c-0.1,0-0.1,0-0.2,0c-1.5-0.2-2.8,0.9-3,2.4c-0.2,1.5,0.9,2.8,2.4,3c1.5,0.2,2.8-0.9,3-2.4C185.4,60,185.4,59.9,185.5,59.7
	L185.5,59.7z M120,50.7c-0.8,0-1.5,0.6-1.5,1.4s0.6,1.5,1.4,1.5c0.8,0,1.5-0.6,1.5-1.4c0,0,0,0,0,0C121.4,51.4,120.8,50.7,120,50.7z
	 M97.9,58.7v5.7h-2.6v-1c-0.7,0.8-1.7,1.2-2.8,1.2c-2,0-3.6-1.2-3.6-3c0-1.8,1.8-3.2,4-3.2c0.8,0,1.7,0.2,2.4,0.5v-0.2
	c0-1-0.6-1.9-2.2-1.9c-0.9,0-1.7,0.3-2.5,0.7l-0.9-1.8c1.2-0.6,2.6-1,4-1c2.1-0.1,4,1.5,4.1,3.6C97.9,58.4,97.9,58.6,97.9,58.7
	L97.9,58.7z M95.3,60.5c-0.6-0.2-1.3-0.3-2-0.4c-1,0-1.8,0.6-1.8,1.3c0,0.8,0.7,1.3,1.6,1.3c1,0.1,1.9-0.5,2.2-1.4L95.3,60.5z
	 M104.2,58.5c-1.3-0.4-1.7-0.5-1.7-1c0-0.3,0.5-0.6,1.1-0.6c0.9,0,1.9,0.3,2.7,0.9l1.1-1.9c-1.1-0.7-2.4-1.2-3.8-1.2
	c-2.2,0-3.7,1.3-3.7,3.1c0,1.8,1.5,2.4,3.5,2.9c1,0.3,1.7,0.5,1.7,1c0,0.4-0.5,0.7-1.2,0.7c-1.1,0-2.3-0.4-3.2-1.1l-1.2,1.9
	c1.2,0.9,2.7,1.4,4.3,1.5c2.3,0,3.9-1.2,3.9-3.1C107.6,59.5,105.8,58.9,104.2,58.5L104.2,58.5z M113.4,58.5c-1.3-0.4-1.7-0.5-1.7-1
	c0-0.3,0.5-0.6,1.1-0.6c0.9,0,1.9,0.3,2.7,0.9l1.1-1.9c-1.1-0.7-2.4-1.2-3.8-1.2c-2.2,0-3.7,1.3-3.7,3.1c0,1.8,1.5,2.4,3.5,2.9
	c1,0.3,1.7,0.5,1.7,1s-0.5,0.7-1.2,0.7c-1.1,0-2.3-0.4-3.2-1.1l-1.2,1.9c1.2,1,2.8,1.5,4.3,1.5c2.3,0,3.9-1.2,3.9-3.1
	C116.8,59.5,115,58.9,113.4,58.5z M118.6,64.4h2.7v-9.5h-2.7V64.4z M87.9,56c0,2.5-2,4.3-4.8,4.3h-3v4.1h-2.7V51.7h5.7
	C85.9,51.7,87.9,53.5,87.9,56z M85.1,56c0-1.1-0.9-1.8-2.3-1.8h-2.7v3.6h2.7C84.2,57.8,85.1,57.1,85.1,56z M234.3,58.8
	c-1.3-0.4-1.7-0.5-1.7-1c0-0.3,0.5-0.6,1.1-0.6c0.9,0,1.9,0.3,2.7,0.9l1.1-1.9c-1.1-0.7-2.4-1.2-3.7-1.2c-2.3,0-3.7,1.3-3.7,3.1
	c0,1.8,1.5,2.4,3.5,2.9c1,0.3,1.7,0.5,1.7,1c0,0.4-0.5,0.7-1.2,0.7c-1.1,0-2.3-0.4-3.2-1.1l-1.2,1.9c1.2,0.9,2.7,1.4,4.3,1.4
	c2.3,0,3.9-1.2,3.9-3.1C237.7,59.7,235.9,59.2,234.3,58.8L234.3,58.8z M264,59.9c0,2.9-1.9,5-4.4,5c-1.2,0-2.4-0.6-3.2-1.6v1.3h-2.7
	V51.9h2.7v4.6c0.8-1,1.9-1.5,3.2-1.5C262.2,55,264,57,264,59.9z M261.4,59.9c0.1-1.4-0.9-2.6-2.3-2.7c-0.1,0-0.1,0-0.2,0
	c-1.3,0-2.4,1-2.4,2.3v0.7c0,1.3,1.1,2.3,2.4,2.4c1.4,0,2.5-1.1,2.6-2.5C261.4,60.1,261.4,60,261.4,59.9L261.4,59.9z M248.7,64.7
	h2.7v-9.5h-2.7V64.7z M250.1,51c-0.8,0-1.5,0.6-1.5,1.5s0.6,1.5,1.5,1.5s1.5-0.6,1.5-1.5S250.9,51,250.1,51L250.1,51z M265.9,64.7
	h2.7V51.9h-2.7L265.9,64.7z M277.6,61.7l1.7,1.8c-1.1,1-2.5,1.5-3.9,1.5c-2.7,0.1-4.9-2-5-4.7c0-0.1,0-0.2,0-0.3
	c-0.1-2.6,2-4.8,4.6-4.9c0.1,0,0.2,0,0.3,0c3,0,4.7,2.3,4.7,5.9h-6.9c0.3,1,1.2,1.7,2.3,1.7C276.2,62.5,277,62.2,277.6,61.7
	L277.6,61.7z M273.2,58.9h4.3c-0.2-0.9-1-1.6-2-1.6C274.4,57.3,273.5,57.9,273.2,58.9L273.2,58.9z M243.5,58.7
	c-1.3-0.4-1.7-0.5-1.7-1c0-0.3,0.5-0.6,1.1-0.6c0.9,0,1.9,0.3,2.7,0.9l1.1-1.9c-1.1-0.7-2.4-1.1-3.7-1.2c-2.3,0-3.7,1.3-3.7,3.1
	c0,1.8,1.5,2.4,3.5,2.9c1,0.3,1.7,0.4,1.7,1c0,0.4-0.5,0.7-1.2,0.7c-1.1,0-2.3-0.4-3.2-1l-1.2,1.9c1.2,0.9,2.7,1.4,4.3,1.4
	c2.3,0,3.9-1.2,3.9-3.1C247,59.7,245.1,59.2,243.5,58.7L243.5,58.7z M228.5,59.8c0.1,2.9-2.1,5.3-5,5.4s-5.3-2.1-5.4-5
	s2.1-5.3,5-5.4c0.1,0,0.1,0,0.2,0C226.1,54.8,228.4,57.1,228.5,59.8L228.5,59.8z M225.9,59.8c0-1.4-1.3-2.6-2.7-2.5
	c-1.4,0-2.6,1.3-2.5,2.7c0,1.4,1.2,2.5,2.6,2.5C224.8,62.5,225.9,61.3,225.9,59.8L225.9,59.8z M217,56.2c0,2.5-2,4.3-4.8,4.3h-3v4.1
	h-2.7V52h5.7C215,52,217,53.7,217,56.2L217,56.2z M214.2,56.2c0-1.1-0.9-1.8-2.3-1.8h-2.7V58h2.7C213.3,58,214.2,57.3,214.2,56.2
	L214.2,56.2z"/>
<path class="st0" d="M32.5,0C32.5,0,32.5,0,32.5,0C14.6,0,0,14.5,0,32.4s14.5,32.5,32.4,32.5c17.9,0,32.5-14.5,32.5-32.4
	C64.9,14.6,50.4,0,32.5,0z M32.4,59.9L32.4,59.9C17.2,59.9,4.9,47.6,5,32.4C5,17.2,17.3,4.9,32.5,5C47.7,5,60,17.3,59.9,32.5
	C59.9,47.7,47.6,60,32.4,59.9z"/>
<path class="st0" d="M55.4,30.8c0.4,0,0.7,0.3,0.8,0.7c0,0,0,0,0,0.1v1.1c0,7.4-5.3,12.9-12.7,12.9c-7.3,0-12.4-5.5-12.4-13
	s5.3-13,12.5-13c3.5-0.1,6.9,1.3,9.4,3.9c0.3,0.3,0.3,0.7,0,1l-2.1,2.3c-0.2,0.3-0.7,0.3-0.9,0.1c0,0,0,0-0.1-0.1
	c-1.6-1.8-4-2.7-6.4-2.7c-4.5,0-7.7,3.5-7.7,8.5c0,5,3.2,8.5,7.7,8.5c4,0,6.8-2.1,7.8-5.8h-7.6c-0.4,0-0.7-0.3-0.8-0.7c0,0,0,0,0,0
	v-3c0-0.4,0.3-0.7,0.7-0.8c0,0,0,0,0.1,0L55.4,30.8"/>
<path class="st0" d="M12.3,37c0.2-0.3,0.7-0.3,0.9-0.1c0,0,0.1,0.1,0.1,0.1c1.6,2.5,4.4,4,7.3,3.9c2.8,0,4.5-1.1,4.5-2.9
	c0-1.5-1-2.5-3.7-3.2l-4.2-1.2c-4-1.1-6.3-3.8-6.3-7c0-4.3,3.9-7.3,9.2-7.2c3.3-0.1,6.4,1.2,8.6,3.6c0.3,0.3,0.3,0.8,0,1.1l-2.2,2.2
	c-0.2,0.3-0.5,0.4-0.8,0.2c-0.1-0.1-0.2-0.1-0.2-0.2c-1.3-1.7-3.3-2.7-5.4-2.7c-2.9,0-4.7,1.2-4.7,2.9c0,1.4,1.1,2.4,3.9,3.2
	l4.5,1.2c4,1.1,6,3.4,6,7.1c0,4.4-3.9,7.3-9.4,7.3c-4.2,0-7.4-1.6-10.3-5c-0.3-0.2-0.3-0.7-0.1-0.9c0,0,0,0,0.1-0.1L12.3,37"/>
</svg>
