<?xml version="1.0" encoding="utf-8"?>
<!-- Generator: Adobe Illustrator 22.1.0, SVG Export Plug-In . SVG Version: 6.00 Build 0)  -->
<svg version="1.1" id="Layer_1" xmlns="http://www.w3.org/2000/svg" xmlns:xlink="http://www.w3.org/1999/xlink" x="0px" y="0px"
	 width="117px" height="45px" viewBox="0 0 117 45" style="enable-background:new 0 0 117 45;" xml:space="preserve">
<style type="text/css">
	.st0{fill:#FFFFFF;filter:url(#Adobe_OpacityMaskFilter);}
	.st1{mask:url(#a_1_);fill:#DA2F2A;}
	.st2{fill:#FFFFFE;}
	.st3{fill:#FFFFFF;filter:url(#Adobe_OpacityMaskFilter_1_);}
	.st4{mask:url(#b_1_);fill:#FFFFFE;}
	.st5{fill:#1C1346;}
</style>
<g>
	<defs>
		<filter id="Adobe_OpacityMaskFilter" filterUnits="userSpaceOnUse" x="0" y="0.2" width="116.6" height="34.2">
			<feColorMatrix  type="matrix" values="1 0 0 0 0  0 1 0 0 0  0 0 1 0 0  0 0 0 1 0"/>
		</filter>
	</defs>
	<mask maskUnits="userSpaceOnUse" x="0" y="0.2" width="116.6" height="34.2" id="a_1_">
		<path class="st0" d="M0,0.2h116.6v34.2H0L0,0.2z"/>
	</mask>
	<path class="st1" d="M0,34.4h116.6V0.2H0L0,34.4z"/>
	<g>
		<path class="st2" d="M20.3,20.7h-3.9v-4.6h8.8v4c0,6.3-4.1,9.9-9.8,9.9C9,30,4.7,25.1,4.7,17.3c0-7.5,4.5-12.7,10.8-12.7
			c5,0,7.6,2.4,9.2,6.1l-4.6,1.9c-0.9-1.8-2-3.2-4.7-3.2c-3.6,0-5.7,3.2-5.7,7.8c0,4.5,2.1,7.9,5.8,7.9c4,0,4.6-2.5,4.8-3.7
			C20.3,21.1,20.3,21,20.3,20.7"/>
		<path class="st2" d="M52.6,29.6V5h16.9v4.8h-12v5.1h9v4.8h-9v5.1h12v4.8L52.6,29.6z"/>
		<path class="st2" d="M89.8,29.6h5.4L85.9,5h-4.7l-9.3,24.6h5.2c0,0,0.8-2.3,1.8-5.2H88C89,27.3,89.8,29.6,89.8,29.6 M80.5,19.7
			c1.4-4.1,2.8-8.1,2.9-8.5c0.1,0.4,1.5,4.4,2.9,8.5H80.5z"/>
		<path class="st2" d="M104.9,9.8v19.7h-4.9V9.8h-7V5h18.8v4.8L104.9,9.8z"/>
		<g transform="translate(0 5)">
			<defs>
				<filter id="Adobe_OpacityMaskFilter_1_" filterUnits="userSpaceOnUse" x="29.2" y="0" width="19.7" height="24.6">
					<feColorMatrix  type="matrix" values="1 0 0 0 0  0 1 0 0 0  0 0 1 0 0  0 0 0 1 0"/>
				</filter>
			</defs>
			<mask maskUnits="userSpaceOnUse" x="29.2" y="0" width="19.7" height="24.6" id="b_1_">
				<path class="st3" d="M0-5h48.9v39.9H0L0-5z"/>
			</mask>
			<path class="st4" d="M40.4,11.1h-6.4V4.8h6.4c2.2,0,3.5,0.9,3.5,3.1C43.9,10,42.7,11.1,40.4,11.1z M48.9,7.8
				c0-5.2-3.8-7.8-8.4-7.8H29.2v24.6h4.9v-8.9H39l4.3,8.9h5.6L44.3,15C47.3,13.8,48.9,11.5,48.9,7.8z"/>
		</g>
	</g>
</g>
<path class="st5" d="M7.9,40.3H6.5v1.5h1.5c0.5,0,0.8-0.2,0.8-0.7C8.7,40.5,8.4,40.3,7.9,40.3z M8.6,44.9l-1-2.1H6.5v2.1H5.3v-5.7
	h2.6c1.1,0,1.9,0.6,1.9,1.8c0,0.9-0.4,1.4-1.1,1.7l1.1,2.2L8.6,44.9z"/>
<path class="st5" d="M10.8,44.9h1.1v-5.7h-1.1V44.9z"/>
<path class="st5" d="M15.2,40.3v4.6h-1.1v-4.6h-1.6v-1.1h4.4v1.1H15.2z"/>
<path class="st5" d="M19.2,41.5c-0.1-0.3-0.2-0.7-0.3-0.9c-0.1,0.2-0.2,0.6-0.3,0.9l-0.4,1h1.3L19.2,41.5z M20.4,44.9l-0.4-1.3h-2.1
	l-0.4,1.3h-1.2l2.2-5.7h1.1l2.1,5.7H20.4z"/>
<path class="st5" d="M22.3,44.9h1.1v-5.7h-1.1V44.9z"/>
<path class="st5" d="M28,44.9l-2.1-3.1c-0.1-0.2-0.3-0.5-0.4-0.6c0,0.2,0,0.9,0,1.2v2.5h-1.1v-5.7h1.1l2,3c0.1,0.2,0.3,0.5,0.4,0.6
	c0-0.2,0-0.9,0-1.2v-2.4H29v5.7H28z"/>
<path class="st5" d="M33.7,42.5C33.2,42.8,33,43,33,43.4c0,0.4,0.3,0.6,0.9,0.6c0.3,0,0.6-0.1,0.9-0.3L33.7,42.5z M35.8,44.9
	l-0.4-0.5c-0.4,0.4-1,0.6-1.6,0.6c-1.2,0-1.9-0.5-1.9-1.5c0-0.8,0.4-1.3,1.2-1.6l-0.1-0.2c-0.3-0.3-0.5-0.7-0.5-1.2
	c0-0.9,0.7-1.4,1.7-1.4c0.7,0,1.1,0.2,1.7,0.6l-0.5,0.8c-0.4-0.3-0.8-0.4-1.2-0.4c-0.3,0-0.5,0.1-0.5,0.4c0,0.2,0.1,0.4,0.3,0.6
	l1.6,1.8c0.1-0.3,0.3-0.6,0.4-0.9l0.9,0.3c-0.2,0.6-0.4,1-0.6,1.4l1.1,1.2L35.8,44.9z"/>
<path class="st5" d="M43.1,44.9L41,41.8c-0.1-0.2-0.3-0.5-0.4-0.6c0,0.2,0,0.9,0,1.2v2.5h-1.1v-5.7h1.1l2,3c0.1,0.2,0.3,0.5,0.4,0.6
	c0-0.2,0-0.9,0-1.2v-2.4h1.1v5.7H43.1z"/>
<path class="st5" d="M47.3,40.2c-0.9,0-1.3,0.8-1.3,1.8c0,1,0.4,1.8,1.3,1.8c0.9,0,1.3-0.8,1.3-1.8C48.6,41,48.2,40.2,47.3,40.2z
	 M47.3,45c-1.5,0-2.5-1.2-2.5-2.9c0-1.7,0.9-2.9,2.5-2.9c1.5,0,2.5,1.2,2.5,2.9C49.7,43.8,48.8,45,47.3,45z"/>
<path class="st5" d="M53.1,40.3h-1.5v1.5h1.5c0.5,0,0.8-0.2,0.8-0.7C53.9,40.5,53.6,40.3,53.1,40.3z M53.7,44.9l-1-2.1h-1.1v2.1
	h-1.1v-5.7h2.6c1.1,0,1.9,0.6,1.9,1.8c0,0.9-0.4,1.4-1.1,1.7l1.1,2.2L53.7,44.9z"/>
<path class="st5" d="M58,40.3v4.6h-1.1v-4.6h-1.6v-1.1h4.4v1.1H58z"/>
<path class="st5" d="M63.6,44.9v-2.4h-2.3v2.4h-1.1v-5.7h1.1v2.2h2.3v-2.2h1.1v5.7H63.6z"/>
<path class="st5" d="M65.8,44.9v-5.7h3.9v1.1h-2.8v1h1.6v1.1h-1.6v1.4h2.9v1.1H65.8z"/>
<path class="st5" d="M73.2,40.3h-1.5v1.5h1.5c0.5,0,0.8-0.2,0.8-0.7C74,40.5,73.7,40.3,73.2,40.3z M73.9,44.9l-1-2.1h-1.1v2.1h-1.1
	v-5.7h2.6c1.1,0,1.9,0.6,1.9,1.8c0,0.9-0.4,1.4-1.1,1.7l1.1,2.2L73.9,44.9z"/>
<path class="st5" d="M79.5,44.9l-2.1-3.1c-0.1-0.2-0.3-0.5-0.4-0.6c0,0.2,0,0.9,0,1.2v2.5H76v-5.7H77l2,3c0.1,0.2,0.3,0.5,0.4,0.6
	c0-0.2,0-0.9,0-1.2v-2.4h1.1v5.7H79.5z"/>
<path class="st5" d="M83.9,44.9h1.1v-5.7h-1.1V44.9z"/>
<path class="st5" d="M88.8,40.3h-1.5v1.5h1.5c0.5,0,0.8-0.2,0.8-0.7C89.6,40.5,89.3,40.3,88.8,40.3z M89.5,44.9l-1-2.1h-1.1v2.1
	h-1.1v-5.7h2.6c1.1,0,1.9,0.6,1.9,1.8c0,0.9-0.4,1.4-1.1,1.7l1.1,2.2L89.5,44.9z"/>
<path class="st5" d="M91.7,44.9v-5.7h3.9v1.1h-2.8v1h1.6v1.1h-1.6v1.4h2.9v1.1H91.7z"/>
<path class="st5" d="M96.5,44.9v-5.7h1.1v4.6h2.8v1.1L96.5,44.9z"/>
<path class="st5" d="M103.7,41.5c-0.1-0.3-0.2-0.7-0.3-0.9c-0.1,0.2-0.2,0.6-0.3,0.9l-0.4,1h1.3L103.7,41.5z M104.9,44.9l-0.4-1.3
	h-2.1l-0.4,1.3h-1.2l2.2-5.7h1.1l2.1,5.7H104.9z"/>
<path class="st5" d="M110.2,44.9l-2.1-3.1c-0.1-0.2-0.3-0.5-0.4-0.6c0,0.2,0,0.9,0,1.2v2.5h-1.1v-5.7h1.1l2,3
	c0.1,0.2,0.3,0.5,0.4,0.6c0-0.2,0-0.9,0-1.2v-2.4h1.1v5.7H110.2z"/>
<path class="st5" d="M113.8,40.3h-0.6v3.5h0.6c1.2,0,1.7-0.7,1.7-1.7C115.5,40.9,115,40.3,113.8,40.3z M113.8,44.9h-1.7v-5.7h1.8
	c1.6,0,2.8,0.8,2.8,2.9C116.6,44.1,115.2,44.9,113.8,44.9z"/>
<path class="st5" d="M3.8,41.8c0.4-0.2,0.6-0.6,0.6-1.1c0-1-0.7-1.5-1.8-1.5H0v5.7h2.6c1.2,0,2-0.6,2-1.8C4.6,42.4,4.2,42,3.8,41.8z
	 M1.1,40.3h1.4c0.5,0,0.7,0.2,0.7,0.5c0,0.3-0.2,0.5-0.6,0.5H1.1V40.3z M2.6,43.8H1.1v-1.5h1.5c0.5,0,0.8,0.2,0.8,0.7
	C3.4,43.5,3.2,43.8,2.6,43.8z"/>
</svg>
