<?xml version="1.0" encoding="utf-8"?>
<!-- Generator: Adobe Illustrator 22.1.0, SVG Export Plug-In . SVG Version: 6.00 Build 0)  -->
<svg version="1.1" id="Layer_1" xmlns="http://www.w3.org/2000/svg" xmlns:xlink="http://www.w3.org/1999/xlink" x="0px" y="0px"
	 width="325.4px" height="52.4px" viewBox="0 0 325.4 52.4" style="enable-background:new 0 0 325.4 52.4;" xml:space="preserve">
<style type="text/css">
	.st0{fill:#1A1A1A;}
</style>
<title>logo-secret-escapes</title>
<path class="st0" d="M53,34.5c-1.9,1.7-6.1,4.7-13.2,4.7c-9.3,0-16.5-5.1-16.5-15.2c0-10.6,7.4-15.8,16.6-15.8
	c10.6,0,12.7,7.8,13,11.8c-5.7,2.3-11.7,4.1-17.7,5.3c0.6,4,2.6,9.3,10.5,9.3c2.4,0,4.8-0.6,6.9-1.7L53,34.5z M34.6,21.9
	c2.9-0.3,5.9-0.8,8.7-1.5c-0.1-1.8-0.7-9.4-4.9-9.4c-3.4,0-3.9,4.4-3.9,7.5C34.4,19.7,34.6,20.8,34.6,21.9z"/>
<path class="st0" d="M78.5,35.5c-3.4,2.3-7.3,3.6-11.4,3.7C50,39.2,50,26.7,50,24.2c0-4.2,3.8-16,17.9-16c8.7,0,9.1,2.5,9.9,2.6
	c-0.3,2.5-1.5,4.7-3.5,6.3h-1c-0.9-1.2-3.8-5.2-7.1-5.2s-5.1,4.2-5.1,9.7c0,9.1,5.3,13.2,11.3,13.2c1.8,0,3.5-0.1,5.2-0.5L78.5,35.5
	z"/>
<path class="st0" d="M127.5,34.5c-1.9,1.7-6.1,4.7-13.2,4.7c-9.3,0-16.5-5.1-16.5-15.2c0-10.6,7.4-15.8,16.6-15.8
	c10.6,0,12.7,7.8,13,11.8c-5.7,2.3-11.7,4.1-17.7,5.3c0.6,4,2.6,9.3,10.5,9.3c2.4,0,4.8-0.6,6.9-1.7L127.5,34.5z M109.1,21.9
	c2.9-0.3,5.8-0.8,8.7-1.5c-0.1-1.8-0.7-9.4-4.9-9.4c-3.4,0-3.9,4.4-3.9,7.6C108.9,19.7,109.1,20.8,109.1,21.9z"/>
<path class="st0" d="M19.3,18.2c-0.2-1.8-2-7.2-6.2-7.2c-1.7-0.1-3.2,1.2-3.3,2.9c0,0.1,0,0.2,0,0.4c0,1.5,0,3.3,8.8,7.4
	c3.3,1.4,5.4,4.5,5.6,8c0,7-6.2,9.5-13.4,9.5C7.5,39.2,4.1,38.5,1,37c-0.6-3.2-0.9-6.5-1-9.7h3.6c0.7,5.8,4.4,9,7.4,9
	c3.2,0,3.7-1.8,3.7-3.6c0-1.3-1.1-3.4-4.7-5.2c-4.2-2.2-9.8-4.2-9.8-10.4c0-5.4,4.2-9,12.8-9c3-0.1,6,0.6,8.7,1.8
	c0.5,2.7,0.8,5.5,0.7,8.3H19.3"/>
<path class="st0" d="M126.8,9.1v-3c0-7,10.4-5.9,10.4-5.9v9c2.8,0.3,4.6,0.3,7.2,0.5v1.6c-2.4,0.4-4.8,0.6-7.2,0.7v10.5
	c0,6.7,0.1,12.3,5.9,12.3c1-0.1,2-0.2,3-0.6l0.4,1.7c-1.9,1.2-4.9,3.4-11.9,3.4c-1,0-7.9,0-7.9-9.1L126.8,9.1L126.8,9.1z"/>
<path class="st0" d="M80.4,39.1l0.1-19.2c0-4.3,0-6.7-1.8-6.7h-1.8l-0.5-1.9c4.4-1.4,8.8-2.4,13.3-3.2c0.4,1.5,0.6,3,0.7,4.5
	c1.7-1.7,4-4.5,7.5-4.5s4.9,2.6,5.6,4c-0.6,2.5-2.3,4.6-4.5,5.8c-1.9,0-3.5-1.9-6.5-2.6c-0.5-0.1-1-0.2-1.5-0.3v15.5l0,2.7
	C90.8,40.2,80.4,39.1,80.4,39.1z"/>
<path class="st0" d="M227.9,36.4c-1.7,1.2-5,2.7-10.1,2.7c-7.3,0-14.9-4.3-14.9-13.5c0-12.3,8.7-17.5,16.4-17.5c3.1,0,6,0.7,7.4,1.9
	c-0.1,1.7-0.7,3.3-1.7,4.7h-0.3c-1.8-2.3-4.6-3.6-7.5-3.5c-4.6,0-8.4,3.6-8.4,10.9c-0.1,10.1,5.1,14.9,12.4,14.9
	c2.2-0.2,4.3-0.9,6.1-2L227.9,36.4z"/>
<path class="st0" d="M253.9,37.4c-1.4,1.1-3.1,1.6-4.9,1.6c-3.3,0-4.4-1.3-5.1-2.7c-2.7,1.9-6.1,2.9-9.4,2.7c-4.7,0-7.9-2.7-7.9-6.2
	c0-8.3,11.1-10.8,16.7-12.5v-1.5c0-4.2-1.1-7.9-6-7.9c-5.1,0-6.7,4-7.9,6.4h-0.5c-0.7-0.7-1.3-1.6-1.7-2.6c1.9-2.6,6-6.9,12.8-6.9
	c7.3,0,8.8,3.8,8.8,10.4v9.1c0,4.5,0,9.3,3.5,9.3c0.4,0,0.8-0.1,1.1-0.3L253.9,37.4z M242.4,23.4c-3.6,0-9.9,1.6-9.9,7.6
	c0,3.6,2.3,5.8,6,5.8c1.9,0,3.7-1,4.8-2.6V23.4H242.4z"/>
<path class="st0" d="M306.4,35.5c-3.2,2.4-7.2,3.6-11.2,3.6c-8.1,0-14.7-5.4-14.7-14.5C280.5,13.8,288,8,295.4,8
	c8.6,0,10.4,6.2,11.3,9.7c-6.5,3-13.2,5.3-20.2,6.9c0.3,4,3.3,11.5,12,11.5c2.5,0,5-0.7,7.2-2L306.4,35.5z M286.4,21.7
	c4.9-0.9,9.7-2.1,14.5-3.6c-0.9-4-2.5-7.8-7.4-7.8C288,10.2,286.4,17,286.4,21.7L286.4,21.7z"/>
<path class="st0" d="M321.5,17.6c0-2.9-2-7.5-6.2-7.5c-2.4,0-4.1,1.7-4.1,4.5c0,7.3,14.2,5.2,14.2,15.4c0,6.1-5,9-11.1,9
	c-2.8,0-5.6-0.6-8.1-1.9c-0.8-2.8-1.3-5.7-1.2-8.6h1.7c1.3,4.2,3.5,8.3,8.6,8.3c2.6,0,4.6-2.1,4.6-4.7c0,0,0,0,0-0.1
	c0-8.7-14.2-5.6-14.2-16.1c0-5.2,4.7-8.1,10.2-8.1c2.4-0.1,4.8,0.6,6.8,1.8c0.7,2.5,0.9,5.1,0.8,7.8H321.5L321.5,17.6z"/>
<path class="st0" d="M186.9,35.4c-3.8,4.1-9.1,6.5-14.7,6.5c-10.9,0.1-19.8-7.3-19.8-19.6C152.4,7.8,162.5,0,172.5,0
	c11.6,0,14.1,8.4,15.2,13.1c-8.7,4.1-17.9,7.2-27.3,9.3c0.4,5.4,4.5,15.6,16.2,15.6c5.3,0,7.8-3.5,9-4.1 M160.4,18.5
	c6.6-1.2,13.1-2.9,19.6-4.9c-1.2-5.4-3.4-10.6-10-10.6C162.6,3,160.4,12.2,160.4,18.5z"/>
<path class="st0" d="M199.6,17.6c0-2.9-2-7.5-6.2-7.5c-2.4,0-4.1,1.7-4.1,4.5c0,7.3,14.2,5.2,14.2,15.4c0,6.1-5,9-11.1,9
	c-2.8,0-5.6-0.6-8.1-1.9c-0.8-2.8-1.3-5.7-1.2-8.6h1.7c1.3,4.2,3.5,8.3,8.6,8.3c2.6,0,4.6-2.2,4.5-4.7c0,0,0,0,0,0
	c0-8.7-14.2-5.6-14.2-16.1c0-5.2,4.7-8.1,10.2-8.1c2.4-0.1,4.8,0.6,6.8,1.9c0.7,2.5,0.9,5.1,0.8,7.8L199.6,17.6L199.6,17.6z"/>
<path class="st0" d="M267.2,8c-3.1,0-6,1-8.6,2.7c-0.1-0.9-0.3-1.9-0.8-2.7c-2.2,0-7.3,1.7-9.1,2.2l0.2,1.5l1.4-0.4
	c0.1,0,0.6-0.1,0.9-0.1c1.8,0,1.8,1.8,1.8,8.1v33l0,0c0,0,5.6,0.6,5.6-3.2V38.3c1.7,0.5,3.5,0.7,5.2,0.7c7,0,17.3-4.2,17.3-17.1
	C281.1,13,274.8,8,267.2,8z M265.7,36.8c-2.6,0.2-5.1-0.7-7.1-2.3v-22c1.6-0.9,3.5-1.4,5.4-1.5c5.8,0,11.3,4,11.3,12.4
	C275.2,31.6,272.1,36.8,265.7,36.8z"/>
</svg>
