<?xml version="1.0" encoding="utf-8"?>
<!-- Generator: Adobe Illustrator 22.1.0, SVG Export Plug-In . SVG Version: 6.00 Build 0)  -->
<svg version="1.1" id="Layer_1" xmlns="http://www.w3.org/2000/svg" xmlns:xlink="http://www.w3.org/1999/xlink" x="0px" y="0px"
	 width="264.8px" height="76.7px" viewBox="0 0 264.8 76.7" style="enable-background:new 0 0 264.8 76.7;" xml:space="preserve">
<style type="text/css">
	.st0{fill:#FFFFFF;}
</style>
<title>logo-secret-escapes</title>
<g>
	<path class="st0" d="M40.5,22.2h0.1l0.8,19.6c0,2.6-0.2,4.3-0.7,4.9c-0.5,0.7-1.6,1.2-3.3,1.5l-1.7,0.3v2.1h22v-2.1l-2.1-0.4
		c-1.3-0.3-2.1-0.8-2.4-1.6c-0.3-0.8-0.6-2.5-0.7-5.1L50.3,4.7c-0.1,0-0.2,0-0.4,0c-0.2,0-0.3,0-0.4,0c-2.2,0-3.7,0.2-4.7,0.5
		L29.6,35.1L13.1,4.7c-0.1,0-0.3,0-0.6,0c-0.3,0-0.4,0-0.5,0c-1.4,0-2.9,0.2-4.5,0.5L5.4,36.3c-0.2,3-0.4,5.2-0.6,6.6
		c-0.1,1.4-0.4,2.5-0.7,3.3c-0.3,0.9-0.6,1.3-0.9,1.5C3,47.9,2.4,48,1.7,48.2L0,48.6v2.1h16.2v-2.1L13.4,48
		c-1.5-0.3-2.4-0.7-2.7-1.2c-0.3-0.5-0.4-2.1-0.4-4.9l0.3-19.7h0.1l13.9,27.5c1.1,0,2.2-0.2,3.5-0.5L40.5,22.2z"/>
	<path class="st0" d="M80.7,46.7c-6.5,0-10.2-3.4-11.3-10.1c7.8-1.7,14.1-3.5,19.1-5.7c-0.1-1.1-0.3-2.1-0.5-3.1
		c-0.2-1-0.7-2.1-1.3-3.3s-1.5-2.3-2.4-3.2c-1-0.9-2.3-1.7-4-2.3c-1.7-0.6-3.6-0.9-5.8-0.9c-5.2,0-9.5,1.5-12.9,4.4
		c-3.4,2.9-5,7.1-5,12.6c0,5.3,1.7,9.3,5,12.2s7.6,4.2,12.8,4.2c5.8,0,10.5-1.7,14.3-5l-0.5-1.7C85.5,46.1,83,46.7,80.7,46.7z
		 M68.7,31.3c0-0.8-0.1-1.4-0.1-1.8c0-5.4,1.4-8.1,4.2-8.1c3,0,4.8,3.4,5.3,10.1c-2.4,0.6-5.6,1.2-9.4,1.7
		C68.8,32.7,68.8,32.1,68.7,31.3z"/>
	<path class="st0" d="M124.9,45.2c-0.3-0.3-0.5-0.9-0.5-1.8V1c-1.3,0-3.7,0.3-7.3,0.9c-3.6,0.6-6.3,1.1-8.1,1.7l0.2,2.1h1.9
		c0.5,0,0.9,0.2,1.2,0.5c0.3,0.3,0.5,0.9,0.6,1.9c0.1,0.9,0.2,1.7,0.2,2.5c0,0.7,0,1.9,0,3.6v4.5c-1.1-0.2-2.9-0.3-5.4-0.3
		c-1.5,0-3,0.2-4.5,0.5c-1.5,0.3-3.1,1-4.8,1.8c-1.7,0.9-3.1,2-4.4,3.2c-1.3,1.3-2.4,3-3.2,5.1c-0.8,2.1-1.2,4.4-1.2,7
		c0,4.7,1.4,8.5,4.2,11.4s6.1,4.4,10.1,4.4c0.6,0,1.1,0,1.6-0.1c0.5,0,1-0.1,1.5-0.2s0.9-0.2,1.3-0.3c0.4-0.1,0.8-0.3,1.2-0.4
		c0.4-0.2,0.8-0.3,1-0.4c0.3-0.1,0.6-0.3,1-0.5c0.4-0.2,0.6-0.4,0.8-0.4c0.1-0.1,0.4-0.2,0.7-0.4s0.5-0.3,0.6-0.4l2.3,3.2
		c5.5-1.1,9.9-2.3,13-3.4v-1.7l-1.7-0.4C126,45.8,125.3,45.5,124.9,45.2z M113.2,46.2c-1.2,0.4-2.1,0.6-2.8,0.6
		c-2.5,0-4.6-1.5-6.2-4.6c-1.6-3.1-2.4-6.4-2.4-10c0-3.1,0.6-5.7,1.9-7.7c1.2-2.1,2.8-3.1,4.7-3.1c0.4,0,0.8,0,1.1,0
		c0.3,0,0.6,0.1,0.9,0.1c0.3,0.1,0.5,0.1,0.7,0.2c0.2,0,0.4,0.1,0.6,0.3c0.2,0.1,0.3,0.2,0.4,0.3c0.1,0.1,0.2,0.2,0.4,0.4
		c0.1,0.2,0.2,0.3,0.3,0.4c0.1,0.1,0.2,0.2,0.3,0.4c0.1,0.2,0.2,0.4,0.3,0.4V46.2z"/>
	<path class="st0" d="M133.1,47.1c-0.3,0.6-1.1,1-2.4,1.2l-1.1,0.2v2.1h19.1v-2.1l-1.1-0.2c-1.3-0.2-2.1-0.6-2.4-1.2
		c-0.3-0.6-0.4-1.8-0.4-3.5V18.2c-1.3,0-3.7,0.3-7,0.8c-3.4,0.6-6.1,1.1-8.3,1.7l0.2,2.1h1.9c0.5,0,0.9,0.2,1.2,0.5
		c0.3,0.3,0.5,0.9,0.6,1.9c0.1,0.9,0.2,1.7,0.2,2.5c0,0.7,0,1.9,0,3.6v12.3C133.5,45.4,133.4,46.6,133.1,47.1z"/>
	<path class="st0" d="M138.8,15c1.7,0,3.2-0.6,4.4-1.7c1.2-1.1,1.8-2.5,1.8-4.1c0-1.7-0.6-3.1-1.8-4.2c-1.2-1.1-2.7-1.7-4.4-1.7
		c-1.7,0-3.2,0.6-4.4,1.7c-1.2,1.1-1.8,2.5-1.8,4.2c0,1.7,0.6,3,1.8,4.1C135.6,14.4,137.1,15,138.8,15z"/>
	<path class="st0" d="M182.5,50.1v-1c-1.9-0.4-3.2-1.1-3.7-2.3c-0.6-1.2-0.8-3.5-0.8-6.8v-8.6c0-4.5-0.7-7.9-2.2-10
		c-1.4-2.1-4.4-3.1-8.8-3.1c-2.8,0-5.8,0.7-9,2.1c-3.2,1.4-5.6,3.1-7.1,5.1c0.3,1.2,3.5,2.8,3.9,2.2c1.7-3,3.9-4.4,6.7-4.4
		c3.5,0,5.3,2.2,5.3,6.7v1.9c-1.1,0.1-2.2,0.3-3.3,0.6c-1.1,0.3-2.6,0.7-4.3,1.3c-1.8,0.6-3.3,1.3-4.6,2.1c-1.3,0.8-2.4,1.9-3.4,3.3
		c-1,1.4-1.4,2.9-1.4,4.5c0,2.4,0.9,4.3,2.6,5.8c1.7,1.5,4,2.2,6.7,2.2c2.9,0,5.9-1.2,8.8-3.7c1.4,2.5,3.8,3.7,7.4,3.7
		C177.7,51.7,180.2,51.1,182.5,50.1z M164.7,46.7c-1.3,0-2.4-0.6-3.3-1.8c-0.9-1.2-1.4-2.4-1.4-3.8c0-1.8,0.5-3.3,1.5-4.4
		c1-1.1,2.1-1.7,3.3-1.7h1.9v7.7c0,1.4,0.2,2.6,0.5,3.5C166.3,46.5,165.5,46.7,164.7,46.7z"/>
	<path class="st0" d="M7.3,68.9l-1.5-0.6c-1-0.4-1.8-0.7-1.8-1.4c0-0.7,0.6-1.1,1.5-1.1c0.9,0,1.7,0.3,2.4,0.9l1.3-1.7
		c-1-1-2.4-1.5-3.8-1.5c-2.4,0-4.2,1.6-4.2,3.5c0,1.7,1.2,2.7,2.4,3.2l1.5,0.7c1,0.4,1.7,0.7,1.7,1.4c0,0.7-0.5,1.1-1.7,1.1
		c-1,0-2.1-0.5-2.9-1.2L0.8,74c1.2,1.1,2.8,1.7,4.4,1.7c2.8,0,4.4-1.7,4.4-3.6C9.6,70.4,8.7,69.5,7.3,68.9z"/>
	<polygon class="st0" points="17.9,70.6 21.9,70.6 21.9,68.3 17.9,68.3 17.9,66 22.6,66 22.6,63.8 15.2,63.8 15.2,75.5 22.8,75.5 
		22.8,73.3 17.9,73.3 	"/>
	<path class="st0" d="M33.7,73.4c-1.7,0-2.8-1.4-2.8-3.8c0-2.4,1.3-3.8,2.9-3.8c0.9,0,1.5,0.4,2.1,0.9l1.4-1.7
		c-0.8-0.8-2-1.5-3.5-1.5c-3,0-5.5,2.3-5.5,6.2c0,4,2.5,6,5.5,6c1.5,0,2.8-0.6,3.8-1.7L36,72.3C35.4,73,34.7,73.4,33.7,73.4z"/>
	<path class="st0" d="M51.6,67.4c0-2.8-2-3.7-4.5-3.7h-4.2v11.8h2.7v-4.2h1.5l2.2,4.2h3l-2.7-4.7C50.7,70.2,51.6,69.1,51.6,67.4z
		 M45.5,65.9h1.4c1.4,0,2.1,0.4,2.1,1.6c0,1.2-0.8,1.8-2.1,1.8h-1.4V65.9z"/>
	<polygon class="st0" points="60.1,70.6 64.1,70.6 64.1,68.3 60.1,68.3 60.1,66 64.8,66 64.8,63.8 57.5,63.8 57.5,75.5 65,75.5 
		65,73.3 60.1,73.3 	"/>
	<polygon class="st0" points="70,66 73.3,66 73.3,75.5 75.9,75.5 75.9,66 79.1,66 79.1,63.8 70,63.8 	"/>
	<polygon class="st0" points="94.5,70.6 98.5,70.6 98.5,68.3 94.5,68.3 94.5,66 99.2,66 99.2,63.8 91.8,63.8 91.8,75.5 99.3,75.5 
		99.3,73.3 94.5,73.3 	"/>
	<path class="st0" d="M111,68.9l-1.5-0.6c-1-0.4-1.8-0.7-1.8-1.4c0-0.7,0.6-1.1,1.5-1.1c0.9,0,1.7,0.3,2.4,0.9l1.3-1.7
		c-1-1-2.4-1.5-3.8-1.5c-2.4,0-4.2,1.6-4.2,3.5c0,1.7,1.2,2.7,2.4,3.2l1.5,0.7c1,0.4,1.7,0.7,1.7,1.4c0,0.7-0.5,1.1-1.7,1.1
		c-1,0-2.1-0.5-2.9-1.2l-1.5,1.8c1.2,1.1,2.8,1.7,4.4,1.7c2.8,0,4.4-1.7,4.4-3.6C113.3,70.4,112.4,69.5,111,68.9z"/>
	<path class="st0" d="M123.9,73.4c-1.7,0-2.8-1.4-2.8-3.8c0-2.4,1.3-3.8,2.9-3.8c0.9,0,1.5,0.4,2.1,0.9l1.4-1.7
		c-0.8-0.8-2-1.5-3.5-1.5c-3,0-5.5,2.3-5.5,6.2c0,4,2.5,6,5.5,6c1.5,0,2.8-0.6,3.8-1.7l-1.4-1.7C125.6,73,124.9,73.4,123.9,73.4z"/>
	<path class="st0" d="M135.2,63.8l-3.7,11.8h2.7l0.7-2.8h3.6l0.7,2.8h2.8l-3.7-11.8H135.2z M135.5,70.6l0.3-1.1
		c0.3-1.2,0.6-2.6,0.9-3.8h0.1c0.3,1.2,0.6,2.6,1,3.8l0.3,1.1H135.5z"/>
	<path class="st0" d="M150.8,63.8h-4v11.8h2.7v-4h1.5c2.5,0,4.6-1.2,4.6-4C155.5,64.7,153.4,63.8,150.8,63.8z M150.7,69.4h-1.3v-3.5
		h1.2c1.4,0,2.2,0.4,2.2,1.7C152.9,68.8,152.2,69.4,150.7,69.4z"/>
	<polygon class="st0" points="163.8,70.6 167.8,70.6 167.8,68.3 163.8,68.3 163.8,66 168.5,66 168.5,63.8 161.1,63.8 161.1,75.5 
		168.7,75.5 168.7,73.3 163.8,73.3 	"/>
	<path class="st0" d="M180.3,68.9l-1.5-0.6c-1-0.4-1.8-0.7-1.8-1.4c0-0.7,0.6-1.1,1.5-1.1c0.9,0,1.7,0.3,2.4,0.9l1.3-1.7
		c-1-1-2.4-1.5-3.8-1.5c-2.4,0-4.2,1.6-4.2,3.5c0,1.7,1.2,2.7,2.4,3.2l1.5,0.7c1,0.4,1.7,0.7,1.7,1.4c0,0.7-0.5,1.1-1.7,1.1
		c-1,0-2.1-0.5-2.9-1.2l-1.5,1.8c1.2,1.1,2.8,1.7,4.4,1.7c2.8,0,4.4-1.7,4.4-3.6C182.7,70.4,181.8,69.5,180.3,68.9z"/>
	<path class="st0" d="M264.7,31.8L264.7,31.8c-0.3-4.1-1.1-7.9-2.5-11.3c-1.8-4.3-4.3-8.1-7.5-11.1c-3.2-3-7.1-5.4-11.6-7
		c-4.5-1.6-9.5-2.4-15-2.4c-3.7,0-7.3,0.4-10.7,1.3c-3.4,0.9-6.6,2.1-9.5,3.8c-2.9,1.6-5.6,3.6-8,6c-2.4,2.3-4.4,5-6.1,7.9
		c-1.7,2.9-3,6.1-3.9,9.4c-0.9,3.4-1.4,7-1.4,10.7c0,3.6,0.5,7,1.4,10.3c0.9,3.2,2.2,6.3,3.9,9.1c1.7,2.8,3.7,5.3,6,7.6
		c2.3,2.2,5,4.2,7.8,5.8c2.8,1.6,6,2.8,9.2,3.7c3.3,0.8,6.8,1.3,10.3,1.3c1.4,0,2.9-0.1,4.4-0.2c1.5-0.1,2.9-0.3,4.3-0.5
		c1.4-0.2,2.7-0.6,4-0.9c1.3-0.4,2.4-0.9,3.5-1.4l0.9-0.5l-2.5-4.1l-0.9,0.5c-0.6,0.3-1.4,0.7-2.3,0.9c-1,0.3-2,0.5-3.2,0.7
		c-1.2,0.2-2.4,0.3-3.6,0.4c-1.2,0.1-2.5,0.1-3.6,0.1c-4.1,0-8.1-0.7-11.8-2.2c-3.7-1.4-7-3.6-9.9-6.3c-2.8-2.8-5.1-6.2-6.8-10.2
		c-1.7-4-2.5-8.6-2.5-13.8c0-5.1,0.9-9.7,2.6-13.7c1.7-4,4-7.4,6.9-10.2c2.9-2.8,6.2-4.9,10-6.4c3.8-1.5,7.7-2.2,11.8-2.2
		c5.1,0,9.6,0.7,13.4,2c3.8,1.3,7,3.2,9.6,5.7c2.5,2.4,4.5,5.4,5.8,8.9c1.1,2.8,1.9,6.8,1.9,8.9c-0.2,12.9-5.1,19.8-14.8,21.3
		c-2.3,0.3-4.3-0.3-5.7-1.8c-1.7-1.8-2.3-4.7-1.7-7.9l4.4-22.4l-2.4-2.2l-4.1,2.1c-1.9-1.5-4-2.2-6.4-2.2c-2.3,0-4.7,0.6-6.9,1.8
		c-2.2,1.2-4.2,2.8-6.1,4.9c-2.1,2.3-3.8,4.9-5.1,7.9c-1.3,3-2,6.3-2,9.7c0,2,0.3,3.7,0.8,5.2c0.5,1.5,1.2,2.8,2.1,3.7
		c0.9,1,2,1.7,3.2,2.2c1.2,0.5,2.4,0.7,3.8,0.7c2.2,0,4.3-0.6,6.1-1.7c1.4-0.8,2.9-2,4.2-3.3c0.5,1.1,1.3,2.2,2.4,3.1l0.5,0.5
		c1.2,1.2,2.8,2.6,5,3.5c2.9,1.1,7.9,1.6,10.7,1.1c11.1-2,17.9-13.7,17.9-23.5c0-0.5,0-0.7,0-0.9c0-0.2,0-0.4,0-0.7
		C264.8,32.8,264.7,31.8,264.7,31.8z M230.9,26.5l-3.4,17.6c-0.1,0.4-0.1,0.7-0.1,1c-1.3,1.1-2.4,1.8-3.2,2.2
		c-0.9,0.4-1.7,0.6-2.6,0.6c-1.9,0-4.4-0.7-4.4-6.4c0-2.5,0.4-4.7,1.1-6.6c0.7-1.9,1.7-3.6,2.8-5.2c1.2-1.5,2.3-2.6,3.6-3.3
		c1.2-0.6,2.4-0.9,3.4-0.9c0.6,0,1.2,0.1,1.7,0.3C230.2,26,230.6,26.2,230.9,26.5z"/>
</g>
</svg>
